<svg xmlns="http://www.w3.org/2000/svg" width="41.57" height="72" viewBox="0 0 41.57 72"><path d="M-20.78,-60L-41.57,-48L-41.57,-24L-20.78,-12L0,-24L0,-48ZM20.78,-60L0,-48L0,-24L20.78,-12L41.57,-24L41.57,-48ZM62.35,-60L41.57,-48L41.57,-24L62.35,-12L83.14,-24L83.14,-48ZM103.92,-60L83.14,-48L83.14,-24L103.92,-12L124.71,-24L124.71,-48ZM-41.57,-24L-62.35,-12L-62.35,12L-41.57,24L-20.78,12L-20.78,-12ZM0,-24L-20.78,-12L-20.78,12L0,24L20.78,12L20.78,-12ZM41.57,-24L20.78,-12L20.78,12L41.57,24L62.35,12L62.35,-12ZM83.14,-24L62.35,-12L62.35,12L83.14,24L103.92,12L103.92,-12ZM-20.78,12L-41.57,24L-41.57,48L-20.78,60L0,48L0,24ZM20.78,12L0,24L0,48L20.78,60L41.57,48L41.57,24ZM62.35,12L41.57,24L41.57,48L62.35,60L83.14,48L83.14,24ZM103.92,12L83.14,24L83.14,48L103.92,60L124.71,48L124.71,24ZM-41.57,48L-62.35,60L-62.35,84L-41.57,96L-20.78,84L-20.78,60ZM0,48L-20.78,60L-20.78,84L0,96L20.78,84L20.78,60ZM41.57,48L20.78,60L20.78,84L41.57,96L62.35,84L62.35,60ZM83.14,48L62.35,60L62.35,84L83.14,96L103.92,84L103.92,60ZM-20.78,84L-41.57,96L-41.57,120L-20.78,132L0,120L0,96ZM20.78,84L0,96L0,120L20.78,132L41.57,120L41.57,96ZM62.35,84L41.57,96L41.57,120L62.35,132L83.14,120L83.14,96ZM103.92,84L83.14,96L83.14,120L103.92,132L124.71,120L124.71,96Z" fill="none" stroke="#5a96be" stroke-opacity="0.07" stroke-width="1"/></svg>
